<svg xmlns="http://www.w3.org/2000/svg" viewBox="0 0 400 500" width="400" height="500">
  <defs>
    <linearGradient id="bg" x1="0%" y1="0%" x2="100%" y2="100%"><stop offset="0%" style="stop-color:#0a0a1a"/><stop offset="100%" style="stop-color:#0a0a0a"/></linearGradient>
    <linearGradient id="jersey" x1="0%" y1="0%" x2="100%" y2="100%"><stop offset="0%" style="stop-color:#CC0000"/><stop offset="100%" style="stop-color:#7B0000"/></linearGradient>
    <radialGradient id="skin" cx="50%" cy="40%" r="60%"><stop offset="0%" style="stop-color:#c08860"/><stop offset="100%" style="stop-color:#906038"/></radialGradient>
  </defs>
  <rect width="400" height="500" fill="url(#bg)"/>
  <g opacity="0.06" stroke="#FFD700" stroke-width="0.5">
    <line x1="0" y1="50" x2="400" y2="50"/><line x1="0" y1="100" x2="400" y2="100"/><line x1="0" y1="150" x2="400" y2="150"/><line x1="0" y1="200" x2="400" y2="200"/><line x1="0" y1="250" x2="400" y2="250"/><line x1="0" y1="300" x2="400" y2="300"/><line x1="0" y1="350" x2="400" y2="350"/><line x1="0" y1="400" x2="400" y2="400"/>
    <line x1="50" y1="0" x2="50" y2="500"/><line x1="100" y1="0" x2="100" y2="500"/><line x1="150" y1="0" x2="150" y2="500"/><line x1="200" y1="0" x2="200" y2="500"/><line x1="250" y1="0" x2="250" y2="500"/><line x1="300" y1="0" x2="300" y2="500"/><line x1="350" y1="0" x2="350" y2="500"/>
  </g>
  <ellipse cx="200" cy="490" rx="180" ry="50" fill="#FFD700" opacity="0.18"/>
  <ellipse cx="200" cy="420" rx="140" ry="120" fill="url(#jersey)"/>
  <rect x="170" y="300" width="60" height="220" fill="#000" opacity="0.15" rx="4"/>
  <text x="200" y="400" text-anchor="middle" font-family="'Arial Black',sans-serif" font-size="52" fill="#FFD700" opacity="0.9" font-weight="900">21</text>
  <!-- DK - gloves suggestion -->
  <ellipse cx="80" cy="380" rx="35" ry="28" fill="#FFD700" opacity="0.7"/>
  <ellipse cx="80" cy="380" rx="30" ry="22" fill="#e8c060"/>
  <text x="80" y="384" text-anchor="middle" font-size="10" fill="#8B0000" font-weight="bold">GLOVE</text>
  <rect x="183" y="266" width="34" height="52" rx="9" fill="url(#skin)"/>
  <ellipse cx="200" cy="232" rx="69" ry="71" fill="url(#skin)"/>
  <!-- DK hairstyle - wavy short -->
  <path d="M131 218 Q136 155 200 151 Q264 155 269 218 Q254 187 200 185 Q146 187 131 218Z" fill="#0f0500"/>
  <!-- Slight wave on hair -->
  <path d="M131 218 Q145 200 160 205 Q175 200 190 205 Q205 200 220 205 Q235 200 250 205 Q260 200 269 218" fill="none" stroke="#0f0500" stroke-width="6"/>
  <ellipse cx="176" cy="229" rx="10" ry="8" fill="#fff"/>
  <ellipse cx="224" cy="229" rx="10" ry="8" fill="#fff"/>
  <ellipse cx="178" cy="230" rx="6" ry="6" fill="#2a1800"/>
  <ellipse cx="226" cy="230" rx="6" ry="6" fill="#2a1800"/>
  <ellipse cx="179" cy="229" rx="3" ry="3" fill="#000"/>
  <ellipse cx="227" cy="229" rx="3" ry="3" fill="#000"/>
  <ellipse cx="181" cy="227" rx="1.5" ry="1.5" fill="#fff"/>
  <ellipse cx="229" cy="227" rx="1.5" ry="1.5" fill="#fff"/>
  <path d="M163 215 Q177 210 191 214" stroke="#0f0500" stroke-width="3.5" fill="none" stroke-linecap="round"/>
  <path d="M209 214 Q223 210 237 215" stroke="#0f0500" stroke-width="3.5" fill="none" stroke-linecap="round"/>
  <!-- Beard -->
  <path d="M153 262 Q162 298 200 305 Q238 298 247 262 Q231 280 200 283 Q169 280 153 262Z" fill="#1a0800" opacity="0.7"/>
  <path d="M196 240 Q191 254 196 261 Q200 263 204 261 Q209 254 204 240" fill="#a07040" opacity="0.4"/>
  <path d="M180 273 Q200 285 220 273" stroke="#7B3810" stroke-width="2.5" fill="none" stroke-linecap="round"/>
  <!-- Wicket keeper helmet -->
  <path d="M131 214 Q137 155 200 151 Q263 155 269 214" fill="#CC0000" opacity="0.9"/>
  <path d="M131 214 Q123 234 134 248" stroke="#CC0000" stroke-width="7" fill="none"/>
  <line x1="135" y1="229" x2="160" y2="245" stroke="#FFD700" stroke-width="2.5"/>
  <line x1="135" y1="241" x2="156" y2="253" stroke="#FFD700" stroke-width="2"/>
  <!-- DK gloves on right too -->
  <circle cx="55" cy="380" r="20" fill="none" stroke="#FFD700" stroke-width="1" stroke-dasharray="3,3"/>
  <text x="200" y="30" text-anchor="middle" font-size="15" fill="#FFD700" font-family="Arial" font-weight="bold">🧤 THE FINISHER 🧤</text>
</svg>
