<svg xmlns="http://www.w3.org/2000/svg" viewBox="0 0 400 500" width="400" height="500">
  <defs>
    <linearGradient id="bg" x1="0%" y1="0%" x2="100%" y2="100%">
      <stop offset="0%" style="stop-color:#001a00"/>
      <stop offset="100%" style="stop-color:#0a0a0a"/>
    </linearGradient>
    <linearGradient id="jersey" x1="0%" y1="0%" x2="100%" y2="100%">
      <stop offset="0%" style="stop-color:#CC0000"/>
      <stop offset="100%" style="stop-color:#7B0000"/>
    </linearGradient>
    <radialGradient id="skin" cx="50%" cy="40%" r="60%">
      <stop offset="0%" style="stop-color:#dba070"/>
      <stop offset="100%" style="stop-color:#b87848"/>
    </radialGradient>
    <filter id="glow2"><feGaussianBlur stdDeviation="3" result="blur"/><feMerge><feMergeNode in="blur"/><feMergeNode in="SourceGraphic"/></feMerge></filter>
  </defs>
  <rect width="400" height="500" fill="url(#bg)"/>
  <g opacity="0.06" stroke="#FFD700" stroke-width="0.5">
    <line x1="0" y1="60" x2="400" y2="60"/><line x1="0" y1="120" x2="400" y2="120"/><line x1="0" y1="180" x2="400" y2="180"/><line x1="0" y1="240" x2="400" y2="240"/><line x1="0" y1="300" x2="400" y2="300"/><line x1="0" y1="360" x2="400" y2="360"/><line x1="0" y1="420" x2="400" y2="420"/>
    <line x1="60" y1="0" x2="60" y2="500"/><line x1="120" y1="0" x2="120" y2="500"/><line x1="180" y1="0" x2="180" y2="500"/><line x1="240" y1="0" x2="240" y2="500"/><line x1="300" y1="0" x2="300" y2="500"/><line x1="360" y1="0" x2="360" y2="500"/>
  </g>
  <ellipse cx="200" cy="490" rx="180" ry="50" fill="#FFD700" opacity="0.15"/>
  <ellipse cx="200" cy="420" rx="145" ry="125" fill="url(#jersey)"/>
  <rect x="170" y="300" width="60" height="220" fill="#000" opacity="0.15" rx="4"/>
  <text x="200" y="400" text-anchor="middle" font-family="'Arial Black',sans-serif" font-size="48" fill="#FFD700" opacity="0.9" font-weight="900">32</text>
  <rect x="183" y="266" width="34" height="52" rx="9" fill="url(#skin)"/>
  <!-- Head - Big Max -->
  <ellipse cx="200" cy="234" rx="72" ry="73" fill="url(#skin)"/>
  <!-- Big curly hair -->
  <path d="M128 215 Q130 148 200 143 Q270 148 272 215 Q258 178 200 175 Q142 178 128 215Z" fill="#4a2000"/>
  <!-- Extra volume on sides -->
  <ellipse cx="140" cy="200" rx="20" ry="18" fill="#4a2000"/>
  <ellipse cx="260" cy="200" rx="20" ry="18" fill="#4a2000"/>
  <!-- Eyes -->
  <ellipse cx="175" cy="230" rx="11" ry="9" fill="#fff"/>
  <ellipse cx="225" cy="230" rx="11" ry="9" fill="#fff"/>
  <ellipse cx="177" cy="231" rx="6" ry="6" fill="#2a3060"/>
  <ellipse cx="227" cy="231" rx="6" ry="6" fill="#2a3060"/>
  <ellipse cx="178" cy="230" rx="3" ry="3" fill="#000"/>
  <ellipse cx="228" cy="230" rx="3" ry="3" fill="#000"/>
  <ellipse cx="180" cy="228" rx="1.5" ry="1.5" fill="#fff"/>
  <ellipse cx="230" cy="228" rx="1.5" ry="1.5" fill="#fff"/>
  <!-- Big Maxwell eyebrows -->
  <path d="M162 215 Q176 210 191 214" stroke="#3a1800" stroke-width="4" fill="none" stroke-linecap="round"/>
  <path d="M209 214 Q224 210 238 215" stroke="#3a1800" stroke-width="4" fill="none" stroke-linecap="round"/>
  <!-- Beard -->
  <path d="M155 262 Q165 295 200 300 Q235 295 245 262 Q228 280 200 283 Q172 280 155 262Z" fill="#3a1800" opacity="0.6"/>
  <!-- Mustache -->
  <path d="M178 260 Q200 268 222 260" fill="#3a1800" opacity="0.7"/>
  <!-- Nose -->
  <path d="M196 238 Q191 253 195 261 Q200 263 205 261 Q209 253 204 238" fill="#b07040" opacity="0.4"/>
  <!-- Cheeky grin -->
  <path d="M175 274 Q200 292 225 274" stroke="#8B4513" stroke-width="3" fill="none" stroke-linecap="round"/>
  <!-- No helmet - he's THE BIG SHOW -->
  <text x="200" y="30" text-anchor="middle" font-size="16" fill="#FFD700" font-family="Arial" font-weight="bold" filter="url(#glow2)">⚡ BIG SHOW ⚡</text>
  <!-- Lightning bolts decoration -->
  <text x="50" y="250" font-size="40" fill="#FFD700" opacity="0.15">⚡</text>
  <text x="310" y="250" font-size="40" fill="#FFD700" opacity="0.15">⚡</text>
</svg>
