<svg xmlns="http://www.w3.org/2000/svg" viewBox="0 0 400 500" width="400" height="500">
  <defs>
    <linearGradient id="bg" x1="0%" y1="0%" x2="100%" y2="100%">
      <stop offset="0%" style="stop-color:#0a001a"/>
      <stop offset="100%" style="stop-color:#0a0a0a"/>
    </linearGradient>
    <linearGradient id="jersey" x1="0%" y1="0%" x2="100%" y2="100%">
      <stop offset="0%" style="stop-color:#CC0000"/>
      <stop offset="100%" style="stop-color:#6B0000"/>
    </linearGradient>
    <radialGradient id="skin" cx="50%" cy="40%" r="60%">
      <stop offset="0%" style="stop-color:#e8b88a"/>
      <stop offset="100%" style="stop-color:#c49060"/>
    </radialGradient>
    <filter id="shadow"><feDropShadow dx="0" dy="4" stdDeviation="8" flood-color="#CC0000" flood-opacity="0.5"/></filter>
  </defs>
  <rect width="400" height="500" fill="url(#bg)"/>
  <g opacity="0.06" stroke="#CC0000" stroke-width="0.5">
    <line x1="0" y1="50" x2="400" y2="50"/><line x1="0" y1="100" x2="400" y2="100"/><line x1="0" y1="150" x2="400" y2="150"/><line x1="0" y1="200" x2="400" y2="200"/><line x1="0" y1="250" x2="400" y2="250"/><line x1="0" y1="300" x2="400" y2="300"/><line x1="0" y1="350" x2="400" y2="350"/><line x1="0" y1="400" x2="400" y2="400"/>
    <line x1="50" y1="0" x2="50" y2="500"/><line x1="100" y1="0" x2="100" y2="500"/><line x1="150" y1="0" x2="150" y2="500"/><line x1="200" y1="0" x2="200" y2="500"/><line x1="250" y1="0" x2="250" y2="500"/><line x1="300" y1="0" x2="300" y2="500"/><line x1="350" y1="0" x2="350" y2="500"/>
  </g>
  <ellipse cx="200" cy="490" rx="180" ry="50" fill="#CC0000" opacity="0.2"/>
  <ellipse cx="200" cy="420" rx="140" ry="120" fill="url(#jersey)"/>
  <rect x="170" y="300" width="60" height="220" fill="#000" opacity="0.15" rx="4"/>
  <text x="200" y="400" text-anchor="middle" font-family="'Arial Black',sans-serif" font-size="52" fill="#FFD700" opacity="0.9" font-weight="900" filter="url(#shadow)">7</text>
  <rect x="185" y="268" width="30" height="50" rx="8" fill="url(#skin)"/>
  <!-- Head - slightly wider for Faf -->
  <ellipse cx="200" cy="238" rx="68" ry="70" fill="url(#skin)"/>
  <!-- Short light hair -->
  <path d="M133 215 Q138 158 200 155 Q262 158 267 215 Q252 190 200 188 Q148 190 133 215Z" fill="#c8a060"/>
  <!-- Eyes -->
  <ellipse cx="176" cy="232" rx="10" ry="8" fill="#fff"/>
  <ellipse cx="224" cy="232" rx="10" ry="8" fill="#fff"/>
  <ellipse cx="178" cy="233" rx="6" ry="6" fill="#3a5080"/>
  <ellipse cx="226" cy="233" rx="6" ry="6" fill="#3a5080"/>
  <ellipse cx="179" cy="232" rx="3" ry="3" fill="#000"/>
  <ellipse cx="227" cy="232" rx="3" ry="3" fill="#000"/>
  <ellipse cx="181" cy="230" rx="1.5" ry="1.5" fill="#fff"/>
  <ellipse cx="229" cy="230" rx="1.5" ry="1.5" fill="#fff"/>
  <!-- Eyebrows lighter -->
  <path d="M164 218 Q177 214 190 217" stroke="#8B6030" stroke-width="3" fill="none" stroke-linecap="round"/>
  <path d="M210 217 Q223 214 236 218" stroke="#8B6030" stroke-width="3" fill="none" stroke-linecap="round"/>
  <!-- Nose -->
  <path d="M196 240 Q192 254 196 261 Q200 263 204 261 Q208 254 204 240" fill="#c07040" opacity="0.4"/>
  <!-- Smile -->
  <path d="M181 272 Q200 283 219 272" stroke="#a06040" stroke-width="2.5" fill="none" stroke-linecap="round"/>
  <!-- Stubble -->
  <path d="M160 265 Q170 285 200 290 Q230 285 240 265 Q225 278 200 281 Q175 278 160 265Z" fill="#c8a060" opacity="0.3"/>
  <!-- Helmet -->
  <path d="M133 210 Q140 158 200 155 Q260 158 267 210" fill="#CC0000" opacity="0.9"/>
  <path d="M133 210 Q126 228 136 240" stroke="#CC0000" stroke-width="7" fill="none"/>
  <line x1="137" y1="226" x2="160" y2="240" stroke="#FFD700" stroke-width="2.5"/>
  <line x1="137" y1="237" x2="156" y2="248" stroke="#FFD700" stroke-width="2"/>
  <!-- Captain badge -->
  <circle cx="340" cy="340" r="28" fill="#FFD700" opacity="0.15" stroke="#FFD700" stroke-width="1"/>
  <text x="340" y="335" text-anchor="middle" font-size="11" fill="#FFD700" font-family="Arial" font-weight="bold">CAPT</text>
  <text x="340" y="350" text-anchor="middle" font-size="11" fill="#FFD700" font-family="Arial" font-weight="bold">AIN</text>
  <text x="200" y="30" text-anchor="middle" font-size="18" fill="#FFD700">★ CAPTAIN ★</text>
</svg>
