<svg xmlns="http://www.w3.org/2000/svg" viewBox="0 0 400 500" width="400" height="500">
  <defs>
    <linearGradient id="bg" x1="0%" y1="100%" x2="100%" y2="0%">
      <stop offset="0%" style="stop-color:#1a0000"/>
      <stop offset="100%" style="stop-color:#0a0a0a"/>
    </linearGradient>
    <linearGradient id="jersey" x1="0%" y1="0%" x2="100%" y2="100%">
      <stop offset="0%" style="stop-color:#CC0000"/>
      <stop offset="100%" style="stop-color:#5B0000"/>
    </linearGradient>
    <radialGradient id="skin" cx="50%" cy="40%" r="60%">
      <stop offset="0%" style="stop-color:#b87848"/>
      <stop offset="100%" style="stop-color:#8B5530"/>
    </radialGradient>
    <filter id="fireGlow"><feGaussianBlur stdDeviation="4" result="blur"/><feMerge><feMergeNode in="blur"/><feMergeNode in="SourceGraphic"/></feMerge></filter>
  </defs>
  <rect width="400" height="500" fill="url(#bg)"/>
  <!-- Fire effect bg -->
  <ellipse cx="200" cy="300" rx="200" ry="200" fill="#CC0000" opacity="0.08"/>
  <g opacity="0.07" stroke="#CC0000" stroke-width="0.5">
    <line x1="0" y1="50" x2="400" y2="50"/><line x1="0" y1="100" x2="400" y2="100"/><line x1="0" y1="150" x2="400" y2="150"/><line x1="0" y1="200" x2="400" y2="200"/><line x1="0" y1="250" x2="400" y2="250"/><line x1="0" y1="300" x2="400" y2="300"/><line x1="0" y1="350" x2="400" y2="350"/><line x1="0" y1="400" x2="400" y2="400"/>
    <line x1="50" y1="0" x2="50" y2="500"/><line x1="100" y1="0" x2="100" y2="500"/><line x1="150" y1="0" x2="150" y2="500"/><line x1="200" y1="0" x2="200" y2="500"/><line x1="250" y1="0" x2="250" y2="500"/><line x1="300" y1="0" x2="300" y2="500"/><line x1="350" y1="0" x2="350" y2="500"/>
  </g>
  <!-- Bowling action hint - arm extended -->
  <ellipse cx="200" cy="490" rx="180" ry="50" fill="#CC0000" opacity="0.3"/>
  <!-- Body -->
  <ellipse cx="200" cy="420" rx="140" ry="120" fill="url(#jersey)"/>
  <!-- Arm raised (bowling) -->
  <line x1="260" y1="330" x2="340" y2="200" stroke="#CC0000" stroke-width="30" stroke-linecap="round"/>
  <line x1="260" y1="330" x2="340" y2="200" stroke="#8B0000" stroke-width="26" stroke-linecap="round"/>
  <!-- Jersey number -->
  <text x="185" y="405" text-anchor="middle" font-family="'Arial Black',sans-serif" font-size="48" fill="#FFD700" opacity="0.9" font-weight="900">73</text>
  <!-- Neck -->
  <rect x="183" y="265" width="34" height="52" rx="9" fill="url(#skin)"/>
  <!-- Head -->
  <ellipse cx="200" cy="232" rx="70" ry="72" fill="url(#skin)"/>
  <!-- Dark hair - short -->
  <path d="M130 215 Q135 152 200 149 Q265 152 270 215 Q256 182 200 180 Q144 182 130 215Z" fill="#0a0500"/>
  <!-- Beard dense -->
  <path d="M148 265 Q155 305 200 312 Q245 305 252 265 Q234 288 200 292 Q166 288 148 265Z" fill="#0a0500" opacity="0.85"/>
  <!-- Mustache -->
  <path d="M175 260 Q200 270 225 260" fill="#0a0500" opacity="0.9"/>
  <!-- Eyes - intense -->
  <ellipse cx="175" cy="228" rx="11" ry="9" fill="#fff"/>
  <ellipse cx="225" cy="228" rx="11" ry="9" fill="#fff"/>
  <ellipse cx="177" cy="229" rx="7" ry="6" fill="#1a0800"/>
  <ellipse cx="227" cy="229" rx="7" ry="6" fill="#1a0800"/>
  <ellipse cx="178" cy="228" rx="3.5" ry="3.5" fill="#000"/>
  <ellipse cx="228" cy="228" rx="3.5" ry="3.5" fill="#000"/>
  <ellipse cx="180" cy="226" rx="1.5" ry="1.5" fill="#fff"/>
  <ellipse cx="230" cy="226" rx="1.5" ry="1.5" fill="#fff"/>
  <!-- Fierce eyebrows -->
  <path d="M162 212 Q176 205 192 210" stroke="#0a0500" stroke-width="4.5" fill="none" stroke-linecap="round"/>
  <path d="M208 210 Q224 205 238 212" stroke="#0a0500" stroke-width="4.5" fill="none" stroke-linecap="round"/>
  <!-- Nose -->
  <path d="M195 236 Q190 252 195 260 Q200 262 205 260 Q210 252 205 236" fill="#905530" opacity="0.4"/>
  <!-- Determined mouth -->
  <path d="M182 274 Q200 279 218 274" stroke="#6B3010" stroke-width="2.5" fill="none" stroke-linecap="round"/>
  <!-- Helmet -->
  <path d="M130 212 Q136 152 200 148 Q264 152 270 212" fill="#CC0000" opacity="0.95"/>
  <path d="M130 212 Q122 232 133 245" stroke="#CC0000" stroke-width="8" fill="none"/>
  <line x1="134" y1="227" x2="160" y2="244" stroke="#FFD700" stroke-width="3"/>
  <line x1="134" y1="240" x2="156" y2="253" stroke="#FFD700" stroke-width="2.5"/>
  <!-- Cricket ball -->
  <circle cx="348" cy="192" r="20" fill="#CC0000" stroke="#8B0000" stroke-width="2"/>
  <path d="M332 185 Q348 188 364 185" stroke="#FFD700" stroke-width="1.5" fill="none"/>
  <path d="M332 199 Q348 196 364 199" stroke="#FFD700" stroke-width="1.5" fill="none"/>
  <!-- Fire text -->
  <text x="200" y="30" text-anchor="middle" font-size="16" fill="#FF4500" font-family="Arial" font-weight="bold" filter="url(#fireGlow)">🔥 PACE DEMON 🔥</text>
</svg>
